<svg xmlns="http://www.w3.org/2000/svg" xmlns:xlink="http://www.w3.org/1999/xlink" width="137" height="27" viewBox="0 0 137 27">
  <defs>
    <clipPath id="clip-path">
      <rect width="137" height="27" fill="none"/>
    </clipPath>
  </defs>
  <g id="Repetição_de_grade_25" data-name="Repetição de grade 25" clip-path="url(#clip-path)">
    <g transform="translate(-758 -448)">
      <path id="Polígono_22" data-name="Polígono 22" d="M10.585,2.069a1,1,0,0,1,1.829,0L14.6,7.015a1,1,0,0,0,.81.59l5.362.564a1,1,0,0,1,.566,1.736l-4.017,3.633a1,1,0,0,0-.307.949L18.14,19.8a1,1,0,0,1-1.481,1.072L12,18.16a1,1,0,0,0-1.005,0L6.341,20.867A1,1,0,0,1,4.86,19.8l1.125-5.308a1,1,0,0,0-.307-.949L1.66,9.905a1,1,0,0,1,.566-1.736l5.362-.564a1,1,0,0,0,.81-.59Z" transform="translate(758 453)" fill="#fff700"/>
    </g>
    <g transform="translate(-731 -448)">
      <path id="Polígono_22-2" data-name="Polígono 22" d="M10.585,2.069a1,1,0,0,1,1.829,0L14.6,7.015a1,1,0,0,0,.81.59l5.362.564a1,1,0,0,1,.566,1.736l-4.017,3.633a1,1,0,0,0-.307.949L18.14,19.8a1,1,0,0,1-1.481,1.072L12,18.16a1,1,0,0,0-1.005,0L6.341,20.867A1,1,0,0,1,4.86,19.8l1.125-5.308a1,1,0,0,0-.307-.949L1.66,9.905a1,1,0,0,1,.566-1.736l5.362-.564a1,1,0,0,0,.81-.59Z" transform="translate(758 453)" fill="#fff700"/>
    </g>
    <g transform="translate(-704 -448)">
      <path id="Polígono_22-3" data-name="Polígono 22" d="M10.585,2.069a1,1,0,0,1,1.829,0L14.6,7.015a1,1,0,0,0,.81.59l5.362.564a1,1,0,0,1,.566,1.736l-4.017,3.633a1,1,0,0,0-.307.949L18.14,19.8a1,1,0,0,1-1.481,1.072L12,18.16a1,1,0,0,0-1.005,0L6.341,20.867A1,1,0,0,1,4.86,19.8l1.125-5.308a1,1,0,0,0-.307-.949L1.66,9.905a1,1,0,0,1,.566-1.736l5.362-.564a1,1,0,0,0,.81-.59Z" transform="translate(758 453)" fill="#fff700"/>
    </g>
    <g transform="translate(-677 -448)">
      <path id="Polígono_22-4" data-name="Polígono 22" d="M10.585,2.069a1,1,0,0,1,1.829,0L14.6,7.015a1,1,0,0,0,.81.59l5.362.564a1,1,0,0,1,.566,1.736l-4.017,3.633a1,1,0,0,0-.307.949L18.14,19.8a1,1,0,0,1-1.481,1.072L12,18.16a1,1,0,0,0-1.005,0L6.341,20.867A1,1,0,0,1,4.86,19.8l1.125-5.308a1,1,0,0,0-.307-.949L1.66,9.905a1,1,0,0,1,.566-1.736l5.362-.564a1,1,0,0,0,.81-.59Z" transform="translate(758 453)" fill="#fff700"/>
    </g>
    <g transform="translate(-650 -448)">
      <path id="Polígono_22-5" data-name="Polígono 22" d="M10.585,2.069a1,1,0,0,1,1.829,0L14.6,7.015a1,1,0,0,0,.81.59l5.362.564a1,1,0,0,1,.566,1.736l-4.017,3.633a1,1,0,0,0-.307.949L18.14,19.8a1,1,0,0,1-1.481,1.072L12,18.16a1,1,0,0,0-1.005,0L6.341,20.867A1,1,0,0,1,4.86,19.8l1.125-5.308a1,1,0,0,0-.307-.949L1.66,9.905a1,1,0,0,1,.566-1.736l5.362-.564a1,1,0,0,0,.81-.59Z" transform="translate(758 453)" fill="#fff700"/>
    </g>
  </g>
</svg>
