<svg xmlns="http://www.w3.org/2000/svg" width="41.413" height="45.09" viewBox="0 0 41.413 45.09">
  <g id="Grupo_502" data-name="Grupo 502" transform="translate(3.535 2.009)">
    <g id="Grupo_37" data-name="Grupo 37" transform="translate(10.522 6.596)">
      <ellipse id="Elipse_10" data-name="Elipse 10" cx="8.111" cy="7.435" rx="8.111" ry="7.435" transform="translate(5.101 0)" fill="#fff"/>
      <path id="Caminho_22" data-name="Caminho 22" d="M13.652,0c7.533,0,13.64,4.411,13.64,9.851,0,2.486.426,9.78-1.516,9.851-5.8-.171-8.034,0-12.125,0-4.158,0-4.917-.011-12.125,0C-.391,19.692.012,12.289.012,9.851.012,4.411,6.119,0,13.652,0Z" transform="translate(0.023 16.782)" fill="#fff"/>
    </g>
    <g id="Grupo_36" data-name="Grupo 36" transform="translate(5 0)">
      <line id="Linha_6" data-name="Linha 6" x1="0.06" y2="13.193" fill="none" stroke="#fff" stroke-linecap="round" stroke-width="4"/>
      <g id="Componente_2_5" data-name="Componente 2 – 5" transform="translate(6.976 6.596) rotate(90)">
        <line id="Linha_7" data-name="Linha 7" y2="13.19" transform="translate(0 0.321)" fill="none" stroke="#fff" stroke-linecap="round" stroke-width="4"/>
      </g>
    </g>
  </g>
</svg>
