<svg xmlns="http://www.w3.org/2000/svg" width="40.326" height="31.823" viewBox="0 0 40.326 31.823">
  <g id="Grupo_102" data-name="Grupo 102" transform="translate(-1263.433 -444.637)">
    <path id="Caminho_86" data-name="Caminho 86" d="M-4179.453,320.046c5.1.017,20.358-.019,20.358-.019s.531,4.4,4.5,4.368c1.712.036,4.619-1.753,4.488-4.368s-.052-21.557-.052-21.557.507-3.741,4.142-3.719,5.2,4.266,4.682,4.372-8.64-.027-8.64-.027" transform="translate(5444 150.968)" fill="none" stroke="#7d2891" stroke-linecap="round" stroke-linejoin="round" stroke-width="2"/>
    <path id="Caminho_87" data-name="Caminho 87" d="M-4155.347,336.289s-19.416.095-20.414-.1a4.51,4.51,0,0,1-3.677-4.191" transform="translate(5443.996 139.142)" fill="none" stroke="#7d2891" stroke-linecap="round" stroke-width="2"/>
    <path id="Caminho_88" data-name="Caminho 88" d="M-4166.513,320.156s-.3-20.042.107-21.93a4.646,4.646,0,0,1,3.092-3.4c1.157-.326,21.068-.111,21.068-.111" transform="translate(5439.926 151)" fill="none" stroke="#7d2891" stroke-linecap="round" stroke-width="2"/>
    <line id="Linha_13" data-name="Linha 13" x2="11.603" transform="translate(1278.165 451.007)" fill="none" stroke="#7d2891" stroke-linecap="round" stroke-width="2"/>
    <line id="Linha_14" data-name="Linha 14" x2="11.603" transform="translate(1278.165 467.388)" fill="none" stroke="#7d2891" stroke-linecap="round" stroke-width="2"/>
    <line id="Linha_15" data-name="Linha 15" x2="11.603" transform="translate(1278.165 463.293)" fill="none" stroke="#7d2891" stroke-linecap="round" stroke-width="2"/>
    <line id="Linha_16" data-name="Linha 16" x2="11.603" transform="translate(1278.165 459.198)" fill="none" stroke="#7d2891" stroke-linecap="round" stroke-width="2"/>
    <line id="Linha_17" data-name="Linha 17" x2="11.603" transform="translate(1278.165 455.102)" fill="none" stroke="#7d2891" stroke-linecap="round" stroke-width="2"/>
  </g>
</svg>
