<svg xmlns="http://www.w3.org/2000/svg" width="32.698" height="18.748" viewBox="0 0 32.698 18.748">
  <g id="Grupo_523" data-name="Grupo 523" transform="translate(4052.198 234.5)">
    <g id="Grupo_522" data-name="Grupo 522" transform="translate(-5428.968 -554)">
      <g id="Grupo_68" data-name="Grupo 68" transform="translate(1383.449 320)">
        <g id="Grupo_67" data-name="Grupo 67">
          <path id="Caminho_52" data-name="Caminho 52" d="M-4065.839,169v14.954a5.6,5.6,0,0,0,1.188,0,3.287,3.287,0,0,1,3.283-2.362,3.124,3.124,0,0,1,2.943,2.361s6.869.02,8.008.007,2.033-.207,2.02-1.34,0-13.619,0-13.619h-17.933" transform="translate(4066.329 -169)" fill="none" stroke="#975c8f" stroke-linejoin="round" stroke-width="1"/>
          <path id="Caminho_53" data-name="Caminho 53" d="M-4048.445,174.423l7.426,1.11v8.29a13.957,13.957,0,0,1-1.789,0c-.375-.59-.878-1.833-2.095-2.2a4.278,4.278,0,0,0-2.356.091,3.59,3.59,0,0,0-1.5,1.45" transform="translate(4066.539 -168.868)" fill="none" stroke="#975c8f" stroke-linejoin="round" stroke-width="1"/>
          <path id="Caminho_54" data-name="Caminho 54" d="M-4044.452,175.409l.375,4.187h3.374" transform="translate(4066.072 -169.098)" fill="none" stroke="#975c8f" stroke-linejoin="round" stroke-width="1"/>
        </g>
        <path id="Subtração_11" data-name="Subtração 11" d="M2.486,0A2.486,2.486,0,1,1,0,2.485,2.486,2.486,0,0,1,2.486,0Z" transform="translate(2.321 13.277)" fill="#975c8f"/>
        <path id="Subtração_10" data-name="Subtração 10" d="M2.486,0A2.486,2.486,0,1,1,0,2.485,2.486,2.486,0,0,1,2.486,0Z" transform="translate(18.063 13.277)" fill="#975c8f"/>
      </g>
      <path id="Caminho_55" data-name="Caminho 55" d="M-4066.729,170.652h5.341" transform="translate(5444 152.208)" fill="none" stroke="#975c8f" stroke-linecap="round" stroke-width="1"/>
      <path id="Caminho_57" data-name="Caminho 57" d="M-4066.729,170.652h4.675" transform="translate(5444.667 158.678)" fill="none" stroke="#975c8f" stroke-linecap="round" stroke-width="1"/>
      <path id="Caminho_58" data-name="Caminho 58" d="M-4066.729,170.652h3.408" transform="translate(5445.3 155.443)" fill="none" stroke="#975c8f" stroke-linecap="round" stroke-width="1"/>
    </g>
  </g>
</svg>
