<svg xmlns="http://www.w3.org/2000/svg" width="49.493" height="39.561" viewBox="0 0 49.493 39.561">
  <g id="Grupo_596" data-name="Grupo 596" transform="translate(-68.368 -19.674)">
    <path id="Subtração_22" data-name="Subtração 22" d="M-6238.329,7418.478h-21.712a6.536,6.536,0,0,1-4.083-1.667,17.211,17.211,0,0,1-4.175-5.641l-5.522-12.58a3.4,3.4,0,0,1,.39-3.066c.746-.969,2.277-1.525,4.2-1.525h39.775c2.332,0,3.86.5,4.542,1.486a3.292,3.292,0,0,1,.047,3.105l-6.226,12.58a17.144,17.144,0,0,1-3.242,5.03C-6235.729,7417.669-6237.148,7418.478-6238.329,7418.478Zm7.48-22.7a1,1,0,0,0-.928.624l-7.866,19.471a1,1,0,0,0,.553,1.3.98.98,0,0,0,.374.073,1,1,0,0,0,.927-.625l7.866-19.471a.988.988,0,0,0-.005-.764.992.992,0,0,0-.548-.537A.973.973,0,0,0-6230.849,7395.775Zm-36.219,0a.978.978,0,0,0-.374.073,1,1,0,0,0-.553,1.3l7.868,19.471a1,1,0,0,0,.927.625.98.98,0,0,0,.375-.073.994.994,0,0,0,.545-.536.993.993,0,0,0,.005-.767l-7.864-19.471A1,1,0,0,0-6267.067,7395.775Zm25.011-.672a1,1,0,0,0-.99.86l-2.783,19.806a1,1,0,0,0,.851,1.13,1.379,1.379,0,0,0,.142.009,1,1,0,0,0,.989-.862l2.783-19.806a.992.992,0,0,0-.191-.741.989.989,0,0,0-.659-.387A1.034,1.034,0,0,0-6242.056,7395.1Zm-14.047,0a1.011,1.011,0,0,0-.14.01.994.994,0,0,0-.66.387.991.991,0,0,0-.192.741l2.783,19.806a1.009,1.009,0,0,0,.991.862,1.245,1.245,0,0,0,.14-.009,1,1,0,0,0,.66-.39.988.988,0,0,0,.191-.741l-2.783-19.806A1,1,0,0,0-6256.1,7395.1Z" transform="translate(6342.368 -7359.242)" fill="#fff"/>
    <path id="Caminho_16" data-name="Caminho 16" d="M-4567.167,180.485l5.756-13.583h26.548l4.941,13.583" transform="translate(4641.58 -145.728)" fill="none" stroke="#fff" stroke-linecap="round" stroke-linejoin="round" stroke-width="3"/>
  </g>
</svg>
