<svg xmlns="http://www.w3.org/2000/svg" width="70" height="70" viewBox="0 0 70 70">
  <g id="Grupo_481" data-name="Grupo 481" transform="translate(0.337 0.121)">
    <circle id="Elipse_108" data-name="Elipse 108" cx="35" cy="35" r="35" transform="translate(-0.337 -0.121)" fill="#ff0"/>
    <g id="Grupo_478" data-name="Grupo 478" transform="translate(11.532 20.631)">
      <g id="Caminho_221" data-name="Caminho 221" transform="translate(0.187 0)" fill="red">
        <path d="M 7.597574710845947 11.95160388946533 C 6.85721492767334 11.6204891204834 5.612987041473389 11.02151966094971 4.364304542541504 10.22960662841797 C 2.625024557113647 9.126556396484375 0.5164546370506287 7.416566371917725 0.3483846187591553 5.534256458282471 C 0.1981046199798584 3.851226568222046 0.5426046252250671 2.498146533966064 1.344634652137756 1.62131655216217 C 2.005146503448486 0.899197518825531 2.968819856643677 0.5010676383972168 4.058605670928955 0.4999997317790985 C 6.23097038269043 0.5392164587974548 7.338817596435547 2.101540803909302 7.597574710845947 2.521259307861328 L 7.597574710845947 5.763626575469971 L 7.597574710845947 11.95160388946533 Z" stroke="none"/>
        <path d="M 4.054612636566162 1.000006675720215 C 3.502583026885986 1.001276969909668 2.472759246826172 1.128782272338867 1.713574409484863 1.958786964416504 C 1.008804798126221 2.729286193847656 0.7089447975158691 3.950286865234375 0.8464045524597168 5.489786624908447 C 0.9631648063659668 6.79746675491333 2.303214550018311 8.32801628112793 4.619714736938477 9.799507141113281 C 5.509786605834961 10.36489963531494 6.398998737335205 10.83055973052979 7.097574710845947 11.16773509979248 L 7.097574710845947 2.668355941772461 C 6.782763004302979 2.206313133239746 5.812315940856934 1.034040451049805 4.054612636566162 1.000006675720215 M 4.063044548034668 -3.814697265625e-06 C 6.865914821624756 0.048126220703125 8.097574234008789 2.386776924133301 8.097574234008789 2.386776924133301 C 8.097574234008789 2.386776924133301 8.097574234008789 4.076546669006348 8.097574234008789 5.763626575469971 C 8.097574234008789 8.946786880493164 8.097574234008789 12.70839691162109 8.097574234008789 12.70839691162109 C 8.097574234008789 12.70839691162109 0.2114348411560059 9.622546195983887 -0.1496353149414062 5.578726768493652 C -0.5107049942016602 1.534906387329102 1.834824562072754 -3.814697265625e-06 4.063044548034668 -3.814697265625e-06 Z" stroke="none" fill="red"/>
      </g>
      <g id="Caminho_222" data-name="Caminho 222" transform="translate(8.471 0)" fill="red">
        <path d="M 0.3133521974086761 11.95180702209473 L 0.3133521974086761 5.763626575469971 L 0.3133521974086761 2.521107196807861 C 0.5704467296600342 2.103882551193237 1.678306341171265 0.5392462611198425 3.85232138633728 0.4999997317790985 C 4.9421067237854 0.5010676383972168 5.905770301818848 0.899197518825531 6.566292285919189 1.62131655216217 C 7.368322372436523 2.498156547546387 7.712822437286377 3.851226568222046 7.562541961669922 5.534256458282471 C 7.394172191619873 7.419926643371582 5.27891206741333 9.132736206054688 3.534072160720825 10.23755645751953 C 2.287499666213989 11.02687549591064 1.050445437431335 11.62228202819824 0.3133521974086761 11.95180702209473 Z" stroke="none"/>
        <path d="M 3.856356620788574 1.000006675720215 C 2.105662822723389 1.033858299255371 1.133584976196289 2.201553344726562 0.813352108001709 2.670003890991211 L 0.813352108001709 11.16825103759766 C 1.504156589508057 10.83482551574707 2.382415294647217 10.37497043609619 3.266592025756836 9.815116882324219 C 5.598522186279297 8.338556289672852 6.947322368621826 6.80246639251709 7.064522266387939 5.489786624908447 C 7.201982021331787 3.950286865234375 6.902122020721436 2.729286193847656 6.197352409362793 1.958786964416504 C 5.438204288482666 1.128833770751953 4.408401012420654 1.00129222869873 3.856356620788574 1.000006675720215 M 3.847882270812988 -3.814697265625e-06 C 6.07609224319458 -3.814697265625e-06 8.421631813049316 1.534906387329102 8.060562133789062 5.578726768493652 C 7.699492454528809 9.622546195983887 -0.1866474151611328 12.70839691162109 -0.1866474151611328 12.70839691162109 C -0.1866474151611328 12.70839691162109 -0.1866474151611328 8.946786880493164 -0.1866474151611328 5.763626575469971 C -0.1866474151611328 4.076546669006348 -0.1866474151611328 2.386776924133301 -0.1866474151611328 2.386776924133301 C -0.1866474151611328 2.386776924133301 1.0450119972229 0.048126220703125 3.847882270812988 -3.814697265625e-06 Z" stroke="none" fill="red"/>
      </g>
      <path id="Caminho_223" data-name="Caminho 223" d="M.406-1.047l1.477.234-.45,9.978-.378.216L.586,9.057Z" transform="translate(7.194 3.298)" fill="red"/>
    </g>
    <g id="Grupo_479" data-name="Grupo 479" transform="translate(41.773 20.631)">
      <g id="Caminho_221-2" data-name="Caminho 221" transform="translate(0.187 0)" fill="red">
        <path d="M 7.597574710845947 11.95160388946533 C 6.85721492767334 11.6204891204834 5.612987041473389 11.02151966094971 4.364304542541504 10.22960662841797 C 2.625024557113647 9.126556396484375 0.5164546370506287 7.416566371917725 0.3483846187591553 5.534256458282471 C 0.1981046199798584 3.851226568222046 0.5426046252250671 2.498146533966064 1.344634652137756 1.62131655216217 C 2.005146503448486 0.899197518825531 2.968819856643677 0.5010676383972168 4.058605670928955 0.4999997317790985 C 6.23097038269043 0.5392164587974548 7.338817596435547 2.101540803909302 7.597574710845947 2.521259307861328 L 7.597574710845947 5.763626575469971 L 7.597574710845947 11.95160388946533 Z" stroke="none"/>
        <path d="M 4.054612636566162 1.000006675720215 C 3.502583026885986 1.001276969909668 2.472759246826172 1.128782272338867 1.713574409484863 1.958786964416504 C 1.008804798126221 2.729286193847656 0.7089447975158691 3.950286865234375 0.8464045524597168 5.489786624908447 C 0.9631648063659668 6.79746675491333 2.303214550018311 8.32801628112793 4.619714736938477 9.799507141113281 C 5.509786605834961 10.36489963531494 6.398998737335205 10.83055973052979 7.097574710845947 11.16773509979248 L 7.097574710845947 2.668355941772461 C 6.782763004302979 2.206313133239746 5.812315940856934 1.034040451049805 4.054612636566162 1.000006675720215 M 4.063044548034668 -3.814697265625e-06 C 6.865914821624756 0.048126220703125 8.097574234008789 2.386776924133301 8.097574234008789 2.386776924133301 C 8.097574234008789 2.386776924133301 8.097574234008789 4.076546669006348 8.097574234008789 5.763626575469971 C 8.097574234008789 8.946786880493164 8.097574234008789 12.70839691162109 8.097574234008789 12.70839691162109 C 8.097574234008789 12.70839691162109 0.2114348411560059 9.622546195983887 -0.1496353149414062 5.578726768493652 C -0.5107049942016602 1.534906387329102 1.834824562072754 -3.814697265625e-06 4.063044548034668 -3.814697265625e-06 Z" stroke="none" fill="red"/>
      </g>
      <g id="Caminho_222-2" data-name="Caminho 222" transform="translate(8.471 0)" fill="red">
        <path d="M 0.3133521974086761 11.95180702209473 L 0.3133521974086761 5.763626575469971 L 0.3133521974086761 2.521107196807861 C 0.5704467296600342 2.103882551193237 1.678306341171265 0.5392462611198425 3.85232138633728 0.4999997317790985 C 4.9421067237854 0.5010676383972168 5.905770301818848 0.899197518825531 6.566292285919189 1.62131655216217 C 7.368322372436523 2.498156547546387 7.712822437286377 3.851226568222046 7.562541961669922 5.534256458282471 C 7.394172191619873 7.419926643371582 5.27891206741333 9.132736206054688 3.534072160720825 10.23755645751953 C 2.287499666213989 11.02687549591064 1.050445437431335 11.62228202819824 0.3133521974086761 11.95180702209473 Z" stroke="none"/>
        <path d="M 3.856356620788574 1.000006675720215 C 2.105662822723389 1.033858299255371 1.133584976196289 2.201553344726562 0.813352108001709 2.670003890991211 L 0.813352108001709 11.16825103759766 C 1.504156589508057 10.83482551574707 2.382415294647217 10.37497043609619 3.266592025756836 9.815116882324219 C 5.598522186279297 8.338556289672852 6.947322368621826 6.80246639251709 7.064522266387939 5.489786624908447 C 7.201982021331787 3.950286865234375 6.902122020721436 2.729286193847656 6.197352409362793 1.958786964416504 C 5.438204288482666 1.128833770751953 4.408401012420654 1.00129222869873 3.856356620788574 1.000006675720215 M 3.847882270812988 -3.814697265625e-06 C 6.07609224319458 -3.814697265625e-06 8.421631813049316 1.534906387329102 8.060562133789062 5.578726768493652 C 7.699492454528809 9.622546195983887 -0.1866474151611328 12.70839691162109 -0.1866474151611328 12.70839691162109 C -0.1866474151611328 12.70839691162109 -0.1866474151611328 8.946786880493164 -0.1866474151611328 5.763626575469971 C -0.1866474151611328 4.076546669006348 -0.1866474151611328 2.386776924133301 -0.1866474151611328 2.386776924133301 C -0.1866474151611328 2.386776924133301 1.0450119972229 0.048126220703125 3.847882270812988 -3.814697265625e-06 Z" stroke="none" fill="red"/>
      </g>
      <path id="Caminho_223-2" data-name="Caminho 223" d="M.406-1.047l1.477.234-.45,9.978-.378.216L.586,9.057Z" transform="translate(7.194 3.298)" fill="red"/>
    </g>
    <path id="Caminho_224" data-name="Caminho 224" d="M18.875,5.074c6.681,0,24.562-4.859,24.7,0s-11.2,14.979-24.7,14.979S-3.932,10.2-3.932,5.074,12.195,5.074,18.875,5.074Z" transform="translate(16.234 44.97)"/>
    <path id="Caminho_225" data-name="Caminho 225" d="M7.787.177c8.845,0,8.746,5.561,8.746,5.561s-1.966,1.7-9.3,1.442S-1.375,5.738-1.375,5.738-1.058.177,7.787.177Z" transform="translate(27.458 57.815)" fill="red"/>
  </g>
</svg>
