<svg xmlns="http://www.w3.org/2000/svg" width="19.239" height="26.172" viewBox="0 0 19.239 26.172">
  <g id="Grupo_175" data-name="Grupo 175" transform="translate(-0.646 0.308) rotate(-2)">
    <g id="Grupo_22" data-name="Grupo 22" transform="matrix(0.998, -0.07, 0.07, 0.998, 2.391, 1.203)">
      <path id="Caminho_6" data-name="Caminho 6" d="M2.5,0A4.508,4.508,0,0,1,3.621,2.609a17.4,17.4,0,0,1,.972,7.259A46.391,46.391,0,0,1,2.317,20.149c-.3,1.258-.782,1.538-.782,1.538a2.624,2.624,0,0,1-.677-1.524,52.585,52.585,0,0,1-.84-9.67A39.483,39.483,0,0,1,1.126,2.728,5.133,5.133,0,0,1,2.5,0Z" transform="matrix(0.777, 0.629, -0.629, 0.777, 13.648, 0)" fill="#650584"/>
      <path id="Caminho_9" data-name="Caminho 9" d="M1.2,0S.952,4.791.861,8.591s.174,8.167-.018,9.552a4.6,4.6,0,0,1-.3-1.425S-.041,11.187,0,8.664s.61-6.92.61-6.92C.871.044,1.2,0,1.2,0Z" transform="matrix(0.777, 0.629, -0.629, 0.777, 12.572, 2.256)" fill="#fff"/>
    </g>
    <g id="Grupo_20" data-name="Grupo 20" transform="translate(0 18.5)">
      <g id="Grupo_21" data-name="Grupo 21" transform="translate(0 0)">
        <path id="Caminho_7" data-name="Caminho 7" d="M5.25.623a3.467,3.467,0,0,1-.141,3.843A4.723,4.723,0,0,1,3.492,5.983c-.9.521.2-.259.4-.718.339-.858-.1.169-.878.718A10.416,10.416,0,0,1,0,7.38,2.57,2.57,0,0,0,.938,5.264C.9,4.975.139,3.8.2,3.051A3.247,3.247,0,0,1,1.5.405C2.46-.114,4.533-.227,5.25.623Z" transform="translate(0 0)" fill="#650584"/>
        <path id="Caminho_8" data-name="Caminho 8" d="M3.985.134a3.666,3.666,0,0,1,0,.831,3.776,3.776,0,0,1-.15.709,3.855,3.855,0,0,1-.227.563,3.357,3.357,0,0,1-.228.393,4.371,4.371,0,0,1-.37.451,8.2,8.2,0,0,1-.68.657,8.562,8.562,0,0,1-.957.716,7.461,7.461,0,0,1-1.2.629s.068-.061.176-.162.253-.243.409-.4.321-.343.467-.525a2.861,2.861,0,0,0,.348-.524,1.524,1.524,0,0,0,.135-.446,3.621,3.621,0,0,0,.027-.394,1.8,1.8,0,0,1,.043-.373,1.068,1.068,0,0,1,.184-.384,2.336,2.336,0,0,1,.259-.307.723.723,0,0,1,.234-.156.992.992,0,0,1,.285-.059c.111-.01.244-.013.409-.018a.588.588,0,0,0,.41-.2A1.363,1.363,0,0,0,3.814.725,2.643,2.643,0,0,0,3.947.318C3.974.207,3.985.134,3.985.134Z" transform="translate(0.996 1.457)" fill="#fff"/>
      </g>
    </g>
  </g>
</svg>
