<svg xmlns="http://www.w3.org/2000/svg" width="48.968" height="75.572" viewBox="0 0 48.968 75.572">
  <g id="Grupo_189" data-name="Grupo 189" transform="matrix(0.966, -0.259, 0.259, 0.966, -663.233, -495.899)">
    <g id="Grupo_22" data-name="Grupo 22" transform="matrix(0.998, 0.07, -0.07, 0.998, 511.132, 657.788)">
      <path id="Caminho_6" data-name="Caminho 6" d="M6.894,0s3.183,3.545,3.1,7.2c0,0,3.359,7.771,2.683,20.03S6.394,55.595,6.394,55.595c-.838,3.472-2.157,4.244-2.157,4.244A7.241,7.241,0,0,1,2.37,55.632S-.41,40.69.052,28.951A108.944,108.944,0,0,1,3.108,7.528C3.193,3.876,6.894,0,6.894,0Z" transform="matrix(0.777, 0.629, -0.629, 0.777, 37.658, 0)" fill="#a63ac4"/>
      <path id="Caminho_9" data-name="Caminho 9" d="M3.324,0s-.7,13.218-.948,23.7.48,22.535-.051,26.356A12.678,12.678,0,0,1,1.5,46.13S-.112,30.866.006,23.907,1.689,4.814,1.689,4.814C2.4.121,3.324,0,3.324,0Z" transform="matrix(0.777, 0.629, -0.629, 0.777, 34.688, 6.226)" fill="#eb583c"/>
    </g>
    <g id="Grupo_20" data-name="Grupo 20" transform="translate(497.957 704.134) rotate(8)">
      <g id="Grupo_21" data-name="Grupo 21" transform="translate(0 0)">
        <path id="Caminho_7" data-name="Caminho 7" d="M14.485,1.719c1.979,2.345,1.924,6.97-.389,10.6a13.031,13.031,0,0,1-4.46,4.185c-2.475,1.437.551-.716,1.1-1.982.936-2.368-.271.465-2.423,1.982A28.739,28.739,0,0,1,0,20.362c.248-.409,2.945-2.259,2.588-5.837-.091-.8-2.2-4.047-2.024-6.106C.841,5.1,1.8,2.765,4.144,1.118,6.787-.314,12.506-.626,14.485,1.719Z" transform="translate(0 0)" fill="#a63ac4"/>
        <path id="Caminho_8" data-name="Caminho 8" d="M12.19,1.283a10.116,10.116,0,0,1,0,2.3,10.418,10.418,0,0,1-.415,1.96A10.635,10.635,0,0,1,11.151,7.1a9.261,9.261,0,0,1-.632,1.085A12.06,12.06,0,0,1,9.494,9.426a22.616,22.616,0,0,1-1.882,1.811,23.6,23.6,0,0,1-2.645,1.972,20.541,20.541,0,0,1-3.315,1.729s.188-.167.484-.445.7-.668,1.13-1.113.887-.946,1.289-1.447a7.879,7.879,0,0,0,.961-1.445,4.2,4.2,0,0,0,.372-1.231,9.99,9.99,0,0,0,.075-1.087,4.973,4.973,0,0,1,.12-1.03,2.945,2.945,0,0,1,.508-1.06A6.447,6.447,0,0,1,7.3,5.235a2,2,0,0,1,.648-.429,2.746,2.746,0,0,1,.787-.163c.308-.027.674-.034,1.132-.048a1.627,1.627,0,0,0,1.135-.54,3.764,3.764,0,0,0,.711-1.136,7.3,7.3,0,0,0,.367-1.126C12.159,1.487,12.19,1.283,12.19,1.283Z" transform="translate(1.572 3.106)" fill="#eb583c"/>
      </g>
    </g>
  </g>
</svg>
