<svg xmlns="http://www.w3.org/2000/svg" width="30.609" height="32.159" viewBox="0 0 30.609 32.159">
  <g id="Grupo_522" data-name="Grupo 522" transform="translate(4.835 -3.324) rotate(8)">
    <g id="Grupo_22" data-name="Grupo 22" transform="matrix(0.998, -0.07, 0.07, 0.998, 3.209, 1.615)">
      <path id="Caminho_6" data-name="Caminho 6" d="M3.354,0A6.052,6.052,0,0,1,4.862,3.5a23.365,23.365,0,0,1,1.306,9.745c-.329,5.964-3.056,13.8-3.056,13.8-.408,1.689-1.05,2.065-1.05,2.065a3.523,3.523,0,0,1-.908-2.047A70.594,70.594,0,0,1,.025,14.086,53.006,53.006,0,0,1,1.512,3.663C1.553,1.886,3.354,0,3.354,0Z" transform="matrix(0.777, 0.629, -0.629, 0.777, 18.322, 0)" fill="#eb583c"/>
      <path id="Caminho_9" data-name="Caminho 9" d="M1.617,0s-.339,6.431-.461,11.533S1.389,22.5,1.131,24.356a6.168,6.168,0,0,1-.4-1.912S-.054,15.018,0,11.632s.819-9.29.819-9.29C1.17.059,1.617,0,1.617,0Z" transform="matrix(0.777, 0.629, -0.629, 0.777, 16.877, 3.029)" fill="#a63ac4"/>
    </g>
    <g id="Grupo_20" data-name="Grupo 20" transform="translate(0 24.837)">
      <g id="Grupo_21" data-name="Grupo 21" transform="translate(0 0)">
        <path id="Caminho_7" data-name="Caminho 7" d="M7.048.836C8.01,1.977,7.984,4.227,6.858,6a6.34,6.34,0,0,1-2.17,2.036c-1.2.7.268-.348.536-.964.455-1.152-.132.226-1.179.964A13.983,13.983,0,0,1,0,9.907a3.45,3.45,0,0,0,1.259-2.84C1.215,6.679.187,5.1.275,4.1A4.36,4.36,0,0,1,2.016.544C3.3-.153,6.085-.3,7.048.836Z" transform="translate(0 0)" fill="#eb583c"/>
        <path id="Caminho_8" data-name="Caminho 8" d="M6.035.707a4.922,4.922,0,0,1,0,1.116,5.069,5.069,0,0,1-.2.952,5.175,5.175,0,0,1-.3.756,4.507,4.507,0,0,1-.307.527,5.869,5.869,0,0,1-.5.606,11.008,11.008,0,0,1-.914.881,11.492,11.492,0,0,1-1.285.961,10.012,10.012,0,0,1-1.612.844s.092-.081.236-.217.34-.326.549-.543.431-.461.627-.7a3.84,3.84,0,0,0,.467-.7,2.046,2.046,0,0,0,.181-.6,4.861,4.861,0,0,0,.036-.528,2.42,2.42,0,0,1,.058-.5,1.434,1.434,0,0,1,.247-.516,3.136,3.136,0,0,1,.347-.412.971.971,0,0,1,.315-.209,1.332,1.332,0,0,1,.382-.079c.15-.013.327-.017.55-.024a.789.789,0,0,0,.551-.263A1.83,1.83,0,0,0,5.806,1.5,3.549,3.549,0,0,0,5.984.955C6.02.806,6.035.707,6.035.707Z" transform="translate(0.653 1.428)" fill="#a63ac4"/>
      </g>
    </g>
  </g>
</svg>
