<svg xmlns="http://www.w3.org/2000/svg" width="152.392" height="207.314" viewBox="0 0 152.392 207.314">
  <g id="Grupo_175" data-name="Grupo 175" transform="translate(-5.114 2.439) rotate(-2)">
    <g id="Grupo_22" data-name="Grupo 22" transform="matrix(0.998, -0.07, 0.07, 0.998, 18.936, 9.528)">
      <path id="Caminho_6" data-name="Caminho 6" d="M19.791,0s9.138,10.178,8.9,20.663c0,0,9.644,22.309,7.7,57.5S18.356,159.6,18.356,159.6c-2.4,9.966-6.194,12.182-6.194,12.182S7.93,167.915,6.8,159.708c0,0-7.979-42.9-6.654-76.6a312.753,312.753,0,0,1,8.774-61.5C9.166,11.126,19.791,0,19.791,0Z" transform="matrix(0.777, 0.629, -0.629, 0.777, 108.107, 0)"/>
      <path id="Caminho_9" data-name="Caminho 9" d="M9.542,0s-2,37.947-2.722,68.05,1.377,64.692-.145,75.661a36.4,36.4,0,0,1-2.362-11.284S-.321,88.611.018,68.633,4.849,13.82,4.849,13.82C6.9.346,9.542,0,9.542,0Z" transform="matrix(0.777, 0.629, -0.629, 0.777, 99.581, 17.873)" fill="#fff"/>
    </g>
    <g id="Grupo_20" data-name="Grupo 20" transform="translate(0 146.545)">
      <g id="Grupo_21" data-name="Grupo 21" transform="translate(0 0)">
        <path id="Caminho_7" data-name="Caminho 7" d="M41.584,4.934c5.681,6.731,5.523,20.009-1.116,30.442-.818,1.285-3.952,6.481-12.8,12.014-7.105,4.126,1.581-2.055,3.162-5.691,2.687-6.8-.779,1.335-6.955,5.691C20,50.1,8.32,56.744,0,58.455.713,57.28,8.455,51.97,7.43,41.7,7.168,39.406,1.1,30.082,1.62,24.169,2.415,14.643,5.159,7.936,11.9,3.208,19.483-.9,35.9-1.8,41.584,4.934Z" transform="translate(0 0)"/>
        <path id="Caminho_8" data-name="Caminho 8" d="M31.794,1.068A29.04,29.04,0,0,1,31.806,7.7,29.9,29.9,0,0,1,30.6,13.358a30.514,30.514,0,0,1-1.821,4.486,26.567,26.567,0,0,1-1.834,3.123,34.6,34.6,0,0,1-2.97,3.578,64.828,64.828,0,0,1-5.443,5.192,67.5,67.5,0,0,1-7.633,5.63,58.6,58.6,0,0,1-9.534,4.9S1.908,39.8,2.758,39,4.768,37.1,6,35.826s2.551-2.7,3.709-4.136a22.49,22.49,0,0,0,2.769-4.14,12.023,12.023,0,0,0,1.072-3.535,28.655,28.655,0,0,0,.216-3.126,14.26,14.26,0,0,1,.346-2.962,8.439,8.439,0,0,1,1.466-3.048,18.509,18.509,0,0,1,2.064-2.432,5.757,5.757,0,0,1,1.873-1.233A7.956,7.956,0,0,1,21.8,10.75c.893-.076,1.952-.1,3.277-.133a4.715,4.715,0,0,0,3.289-1.553,10.838,10.838,0,0,0,2.062-3.275A20.966,20.966,0,0,0,31.491,2.54C31.706,1.656,31.794,1.068,31.794,1.068Z" transform="translate(7.885 11.528)" fill="#fff"/>
      </g>
    </g>
  </g>
</svg>
