<svg xmlns="http://www.w3.org/2000/svg" width="37.18" height="36.88" viewBox="0 0 37.18 36.88">
  <path id="União_1" data-name="União 1" d="M5470.642,197.552l-3.308-3.292c-.59-.607-3.786-3.841-3.786-3.841l.574-.4a4.772,4.772,0,0,0,1.826-.29,5.317,5.317,0,0,0,1.674-1.351l3.433-3.678c.849-.814,1.961-1.992,3-1.95,1.081.043,2.259,1.255,3.03,2.049l3.259,3.582a6.205,6.205,0,0,0,.866.829,7.7,7.7,0,0,0,2.354.558l.6.556s-1.833,1.847-2.215,2.264c-.56.594-1.151,1.137-1.639,1.605l-3.676,3.473a4.208,4.208,0,0,1-2.923,1.147A4.271,4.271,0,0,1,5470.642,197.552Zm13.779-8.79-1.979-.078a59.158,59.158,0,0,1-4.219-4.357,19.752,19.752,0,0,0-2.447-2.223.159.159,0,0,0-.005.015,2.947,2.947,0,0,0-3.658-.082,1.65,1.65,0,0,1-.35.221,19.035,19.035,0,0,0-2.254,2.069,59.223,59.223,0,0,1-4.22,4.357l-1.979.078-.72.715s-2.092-2.037-2.479-2.375a27.294,27.294,0,0,1-4.089-4.209,4.386,4.386,0,0,1,.71-5.666c3.377-3.453,5.931-5.974,5.931-5.974l.886.725,1.844.12s1.546,1.558,3.374,3.289c1.183,1.121,2.8,2.559,3.9,3.625a2.164,2.164,0,0,0,2.258.138c1.1-1.077,2.807-2.593,4.041-3.763,1.828-1.731,3.374-3.289,3.374-3.289l1.843-.12.887-.725s2.553,2.522,5.93,5.974a4.386,4.386,0,0,1,.711,5.666,27.317,27.317,0,0,1-4.089,4.209c-.386.338-2.479,2.375-2.479,2.375Zm-13.367-12.707-3.433-3.678a5.315,5.315,0,0,0-1.674-1.352,4.773,4.773,0,0,0-1.826-.29l-.574-.4s3.2-3.234,3.786-3.841l3.308-3.292a4.324,4.324,0,0,1,5.991-.12l3.676,3.473c.488.468,1.079,1.011,1.639,1.605.382.417,2.215,2.264,2.215,2.264l-.6.557a7.7,7.7,0,0,0-2.354.559,6.2,6.2,0,0,0-.866.829l-3.259,3.582c-.771.794-1.95,2.006-3.03,2.049H5474C5472.978,178.005,5471.888,176.854,5471.055,176.055Z" transform="translate(-5455.276 -161.939)" fill="#7d2891"/>
</svg>
