<svg xmlns="http://www.w3.org/2000/svg" width="41.981" height="45.595" viewBox="0 0 41.981 45.595">
  <g id="Grupo_599" data-name="Grupo 599" transform="translate(-9721.251 -371.142)">
    <g id="Grupo_598" data-name="Grupo 598">
      <g id="Caminho_264" data-name="Caminho 264" transform="translate(9722.033 373.776)" fill="none">
        <path d="M17.778,0c4.51,0,7.246,4.038,7.533,9.872.382,9.755,4.208,7.269,8.416,13.1C40.9,34.834,27.583,35.508,17.778,35.508S-5.1,35.025,1.879,22.974c3.538-5.834,7.3-3.283,7.747-13.1C10.074,3.6,12.317,0,17.778,0Z" stroke="none"/>
        <path d="M 17.77799224853516 4 C 16.99761390686035 4 16.35908317565918 4.107318878173828 15.88015365600586 4.318979263305664 C 15.51833343505859 4.478879928588867 15.24349403381348 4.69727897644043 14.98899269104004 5.027109146118164 C 14.48565864562988 5.679428100585938 13.84089851379395 7.089988708496094 13.61948776245117 10.10860061645508 C 13.2688102722168 17.56697273254395 11.01297760009766 19.87065696716309 8.101503372192383 22.10469055175781 C 7.04704475402832 22.91379928588867 6.212495803833008 23.55418014526367 5.319602966308594 25.01558685302734 C 3.823938369750977 27.60886764526367 3.80140495300293 28.94356155395508 3.99980354309082 29.28780937194824 C 4.061113357543945 29.39419937133789 4.699733734130859 30.34486961364746 8.193264007568359 30.95478057861328 C 11.11516380310059 31.46487998962402 14.67276382446289 31.50759887695312 17.77799224853516 31.50759887695312 C 20.91680335998535 31.50759887695312 24.5184326171875 31.43640899658203 27.43249320983887 30.90839004516602 C 30.98927307128906 30.26390838623047 31.62650299072266 29.29727935791016 31.68745422363281 29.18917846679688 C 31.87148284912109 28.86281394958496 31.82906723022461 27.61068916320801 30.38975143432617 25.18632507324219 C 29.32495880126953 23.74702644348145 28.34869003295898 23.05481147766113 27.22331237792969 22.25687980651855 C 24.06166076660156 20.01517486572266 21.61875343322754 17.69277381896973 21.31512451171875 10.04975128173828 C 21.20966720581055 7.957191467285156 20.71097946166992 6.208433151245117 19.91023254394531 5.123809814453125 C 19.33643341064453 4.346590042114258 18.67882347106934 4 17.77799224853516 4 M 17.77799224853516 0 C 22.28836441040039 0 25.02390289306641 4.037528991699219 25.31121444702148 9.871608734130859 C 25.69326400756836 19.62696838378906 29.51932334899902 17.14031028747559 33.72742462158203 22.97438049316406 C 40.90028381347656 34.83382797241211 27.58313369750977 35.50759887695312 17.77799224853516 35.50759887695312 C 7.972833633422852 35.50759887695312 -5.102817535400391 35.02511978149414 1.879322052001953 22.97438049316406 C 5.417453765869141 17.14031028747559 9.17828369140625 19.69120979309082 9.62617301940918 9.871608734130859 C 10.07443237304688 3.598918914794922 12.3165225982666 0 17.77799224853516 0 Z" stroke="none" fill="#975c8f"/>
      </g>
      <g id="Grupo_597" data-name="Grupo 597" transform="translate(9735.168 371.604)">
        <g id="Grupo_55" data-name="Grupo 55" transform="translate(0)">
          <path id="Caminho_29" data-name="Caminho 29" d="M3.523-.125C5.938-.125,6.7.79,6.631,2.749S6.347,5.7,3.933,5.7.5,4.566.38,2.749,1.108-.125,3.523-.125Z" transform="translate(0.723 -0.337)" fill="#975c8f"/>
          <path id="Caminho_28" data-name="Caminho 28" d="M11.1-.609c.481.163.2,1.131-.217,1.879l-.672,1.284c-.759,1.131-1.2,1.834-2.731,1.834H3.061c-1.532,0-1.908-.138-2.926-1.834A11.477,11.477,0,0,1-.45,1.27a1.864,1.864,0,0,1,0-1.879S2.7-.476,5.424-.457,11.1-.609,11.1-.609Z" transform="matrix(1, -0.017, 0.017, 1, -0.348, 38.639)" fill="#975c8f"/>
        </g>
      </g>
      <line id="Linha_94" data-name="Linha 94" x2="29.556" y2="33.779" transform="translate(9723.816 381.396) rotate(-14)" fill="none" stroke="#975c8f" stroke-linecap="round" stroke-width="3"/>
    </g>
  </g>
</svg>
