<svg xmlns="http://www.w3.org/2000/svg" width="100" height="100" viewBox="0 0 100 100">
  <g id="Grupo_490" data-name="Grupo 490" transform="translate(-0.369 -0.231)">
    <rect id="Retângulo_248" data-name="Retângulo 248" width="100" height="100" transform="translate(0.369 0.231)"/>
    <g id="Grupo_486" data-name="Grupo 486" transform="translate(8.861 5.908)">
      <ellipse id="Elipse_114" data-name="Elipse 114" cx="7.5" cy="7" rx="7.5" ry="7" transform="translate(11.508 0.323)" fill="#00e5ff"/>
      <circle id="Elipse_121" data-name="Elipse 121" cx="7.5" cy="7.5" r="7.5" transform="translate(11.508 23.323)" fill="#00e5ff"/>
      <ellipse id="Elipse_115" data-name="Elipse 115" cx="7.5" cy="7" rx="7.5" ry="7" transform="translate(20.508 3.323)" fill="#00e5ff"/>
      <circle id="Elipse_122" data-name="Elipse 122" cx="7.5" cy="7.5" r="7.5" transform="translate(2.508 20.323)" fill="#00e5ff"/>
      <circle id="Elipse_116" data-name="Elipse 116" cx="7.5" cy="7.5" r="7.5" transform="translate(23.508 11.323)" fill="#00e5ff"/>
      <circle id="Elipse_123" data-name="Elipse 123" cx="7.5" cy="7.5" r="7.5" transform="translate(-0.492 11.323)" fill="#00e5ff"/>
      <ellipse id="Elipse_119" data-name="Elipse 119" cx="7.5" cy="7" rx="7.5" ry="7" transform="translate(2.508 3.323)" fill="#00e5ff"/>
      <circle id="Elipse_120" data-name="Elipse 120" cx="7.5" cy="7.5" r="7.5" transform="translate(20.508 20.323)" fill="#00e5ff"/>
      <circle id="Elipse_124" data-name="Elipse 124" cx="7.5" cy="7.5" r="7.5" transform="translate(11.508 11.323)" fill="#ff0"/>
    </g>
    <g id="Grupo_487" data-name="Grupo 487" transform="translate(2.954 53.169)">
      <circle id="Elipse_114-2" data-name="Elipse 114" cx="7.5" cy="7.5" r="7.5" transform="translate(11.416 0.062)" fill="#00e5ff"/>
      <ellipse id="Elipse_121-2" data-name="Elipse 121" cx="7.5" cy="7" rx="7.5" ry="7" transform="translate(11.416 24.062)" fill="#00e5ff"/>
      <circle id="Elipse_115-2" data-name="Elipse 115" cx="7.5" cy="7.5" r="7.5" transform="translate(20.416 3.062)" fill="#00e5ff"/>
      <circle id="Elipse_122-2" data-name="Elipse 122" cx="7" cy="7" r="7" transform="translate(3.416 21.062)" fill="#00e5ff"/>
      <circle id="Elipse_116-2" data-name="Elipse 116" cx="7.5" cy="7.5" r="7.5" transform="translate(23.416 12.062)" fill="#00e5ff"/>
      <ellipse id="Elipse_123-2" data-name="Elipse 123" cx="7" cy="7.5" rx="7" ry="7.5" transform="translate(0.416 12.062)" fill="#00e5ff"/>
      <ellipse id="Elipse_119-2" data-name="Elipse 119" cx="7" cy="7.5" rx="7" ry="7.5" transform="translate(3.416 3.062)" fill="#00e5ff"/>
      <ellipse id="Elipse_120-2" data-name="Elipse 120" cx="7.5" cy="7" rx="7.5" ry="7" transform="translate(20.416 21.062)" fill="#00e5ff"/>
      <circle id="Elipse_124-2" data-name="Elipse 124" cx="7.5" cy="7.5" r="7.5" transform="translate(11.416 12.062)" fill="#ff0"/>
    </g>
    <g id="Grupo_488" data-name="Grupo 488" transform="translate(50.215 59.077)">
      <ellipse id="Elipse_114-3" data-name="Elipse 114" cx="7" cy="7.5" rx="7" ry="7.5" transform="translate(12.154 0.154)" fill="#00e5ff"/>
      <ellipse id="Elipse_121-3" data-name="Elipse 121" cx="7" cy="7.5" rx="7" ry="7.5" transform="translate(12.154 23.154)" fill="#00e5ff"/>
      <ellipse id="Elipse_115-3" data-name="Elipse 115" cx="7" cy="7.5" rx="7" ry="7.5" transform="translate(21.154 3.154)" fill="#00e5ff"/>
      <ellipse id="Elipse_122-3" data-name="Elipse 122" cx="7.5" cy="7" rx="7.5" ry="7" transform="translate(3.154 21.154)" fill="#00e5ff"/>
      <ellipse id="Elipse_116-3" data-name="Elipse 116" cx="7.5" cy="7" rx="7.5" ry="7" transform="translate(23.154 12.154)" fill="#00e5ff"/>
      <ellipse id="Elipse_123-3" data-name="Elipse 123" cx="7.5" cy="7" rx="7.5" ry="7" transform="translate(0.154 12.154)" fill="#00e5ff"/>
      <circle id="Elipse_119-3" data-name="Elipse 119" cx="7.5" cy="7.5" r="7.5" transform="translate(3.154 3.154)" fill="#00e5ff"/>
      <circle id="Elipse_120-3" data-name="Elipse 120" cx="7" cy="7" r="7" transform="translate(21.154 21.154)" fill="#00e5ff"/>
      <circle id="Elipse_124-3" data-name="Elipse 124" cx="7" cy="7" r="7" transform="translate(12.154 12.154)" fill="#ff0"/>
    </g>
    <g id="Grupo_489" data-name="Grupo 489" transform="translate(56.123 11.815)">
      <circle id="Elipse_114-4" data-name="Elipse 114" cx="7" cy="7" r="7" transform="translate(12.247 0.416)" fill="#00e5ff"/>
      <ellipse id="Elipse_121-4" data-name="Elipse 121" cx="7" cy="7.5" rx="7" ry="7.5" transform="translate(12.247 23.416)" fill="#00e5ff"/>
      <ellipse id="Elipse_115-4" data-name="Elipse 115" cx="7.5" cy="7" rx="7.5" ry="7" transform="translate(20.247 3.416)" fill="#00e5ff"/>
      <ellipse id="Elipse_122-4" data-name="Elipse 122" cx="7" cy="7.5" rx="7" ry="7.5" transform="translate(3.247 20.416)" fill="#00e5ff"/>
      <circle id="Elipse_116-4" data-name="Elipse 116" cx="7.5" cy="7.5" r="7.5" transform="translate(23.247 11.416)" fill="#00e5ff"/>
      <circle id="Elipse_123-4" data-name="Elipse 123" cx="7.5" cy="7.5" r="7.5" transform="translate(0.247 11.416)" fill="#00e5ff"/>
      <circle id="Elipse_119-4" data-name="Elipse 119" cx="7" cy="7" r="7" transform="translate(3.247 3.416)" fill="#00e5ff"/>
      <circle id="Elipse_120-4" data-name="Elipse 120" cx="7.5" cy="7.5" r="7.5" transform="translate(20.247 20.416)" fill="#00e5ff"/>
      <ellipse id="Elipse_124-4" data-name="Elipse 124" cx="7" cy="7.5" rx="7" ry="7.5" transform="translate(12.247 11.416)" fill="#ff0"/>
    </g>
  </g>
</svg>
