<svg xmlns="http://www.w3.org/2000/svg" width="44" height="43" viewBox="0 0 44 43">
  <g id="Grupo_585" data-name="Grupo 585" transform="translate(-4682 6021)">
    <g id="Retângulo_317" data-name="Retângulo 317" transform="translate(4682 -6021)" fill="none" stroke="#7d2891" stroke-width="3">
      <rect width="44" height="43" rx="10" stroke="none"/>
      <rect x="1.5" y="1.5" width="41" height="40" rx="8.5" fill="none"/>
    </g>
    <g id="Grupo_583" data-name="Grupo 583">
      <g id="Subtração_21" data-name="Subtração 21" transform="translate(4692 -6005)" fill="none">
        <path d="M9,20A9,9,0,1,1,9,2a9.141,9.141,0,0,1,1,.055V8.171A3,3,0,1,0,12,11V2.512A9,9,0,0,1,9,20Z" stroke="none"/>
        <path d="M 9 19.99979972839355 C 4.037380218505859 19.99979972839355 0 15.9624195098877 0 10.99979972839355 C 0 6.037179946899414 4.037380218505859 1.999799728393555 9 1.999799728393555 C 9.333490371704102 1.999799728393555 9.669899940490723 2.018289804458618 9.999899864196777 2.054749727249146 L 9.999899864196777 8.171099662780762 C 9.679759979248047 8.057950019836426 9.344099998474121 8.000100135803223 9.000900268554688 8.000100135803223 C 7.345870018005371 8.000100135803223 5.99940013885498 9.345759391784668 5.99940013885498 10.99979972839355 C 5.99940013885498 12.65433979034424 7.345870018005371 14.00039958953857 9.000900268554688 14.00039958953857 C 10.65443992614746 14.00039958953857 11.99969959259033 12.65433979034424 11.99969959259033 10.99979972839355 L 11.99969959259033 2.511799812316895 C 15.58920001983643 3.780349731445312 18 7.191789627075195 18 10.99979972839355 C 18 15.9624195098877 13.96261978149414 19.99979972839355 9 19.99979972839355 Z" stroke="none" fill="#7d2891"/>
      </g>
      <path id="Caminho_242" data-name="Caminho 242" d="M4706-5995.664v-18.872" transform="translate(1 1.583)" fill="none" stroke="#7d2891" stroke-width="6"/>
      <path id="Caminho_243" data-name="Caminho 243" d="M4706.875-6010.828l8.852,8.826" transform="translate(1)" fill="none" stroke="#7d2891" stroke-width="6"/>
    </g>
  </g>
</svg>
