<svg xmlns="http://www.w3.org/2000/svg" width="44" height="43" viewBox="0 0 44 43">
  <g id="Grupo_587" data-name="Grupo 587" transform="translate(-4795 6022)">
    <path id="Caminho_244" data-name="Caminho 244" d="M4745.231-6015.247c-.264-.652-.377-.913-.377-.913s-1.19,7.031,2.349,9.459c3.835,2.629-2.958-.932-2.958-.932s1.041,5.7,5.095,6.738a9.6,9.6,0,0,1,1.229.451l-4.078-.451s2.136,4.327,5.861,4.383c1.974.028-.548.824-3.69,1.847a31.946,31.946,0,0,1-5.185,1.056s6.684,3.287,11.833,2.521,10.3-4.6,12.929-9.532a19.987,19.987,0,0,0,2.3-9.751l3.232-3.232-3.89,1.37,3.123-4-4.328,1.973a5.011,5.011,0,0,0-5.2-2.466,5.894,5.894,0,0,0-4.965,3.84c-.249.673-.732,3.172-.239,4.322S4747.646-6010.536,4745.231-6015.247Z" transform="translate(59.375 4.883)" fill="#7d2891"/>
    <g id="Grupo_586" data-name="Grupo 586" transform="translate(106 -1)">
      <g id="Retângulo_317" data-name="Retângulo 317" transform="translate(4689 -6021)" fill="none" stroke="#7d2891" stroke-width="3">
        <rect width="44" height="43" rx="10" stroke="none"/>
        <rect x="1.5" y="1.5" width="41" height="40" rx="8.5" fill="none"/>
      </g>
    </g>
  </g>
</svg>
